<mxfile host="Electron" agent="Mozilla/5.0 (Macintosh; Intel Mac OS X 10_15_7) AppleWebKit/537.36 (KHTML, like Gecko) draw.io/26.0.16 Chrome/132.0.6834.196 Electron/34.2.0 Safari/537.36" version="26.0.16" pages="2">
  <diagram name="light" id="LQ9MI25q9X63nikaUWuX">
    <mxGraphModel dx="1201" dy="867" grid="1" gridSize="10" guides="1" tooltips="1" connect="1" arrows="1" fold="1" page="1" pageScale="1" pageWidth="1169" pageHeight="827" background="none" math="0" shadow="0">
      <root>
        <mxCell id="0" />
        <mxCell id="1" parent="0" />
        <mxCell id="iZCHKtv3HtPBVuqG4Dow-41" style="edgeStyle=orthogonalEdgeStyle;rounded=0;orthogonalLoop=1;jettySize=auto;html=1;entryX=0;entryY=0.5;entryDx=0;entryDy=0;exitX=1;exitY=0.386;exitDx=0;exitDy=0;exitPerimeter=0;fillColor=#d5e8d4;strokeColor=#82b366;" parent="1" source="iZCHKtv3HtPBVuqG4Dow-5" target="iZCHKtv3HtPBVuqG4Dow-26" edge="1">
          <mxGeometry relative="1" as="geometry" />
        </mxCell>
        <mxCell id="iZCHKtv3HtPBVuqG4Dow-43" value="&lt;b&gt;OpenTelemetry&lt;/b&gt;&lt;br&gt;(metrics, traces)" style="edgeLabel;html=1;align=center;verticalAlign=middle;resizable=0;points=[];fontColor=#3A7B12;labelBackgroundColor=none;" parent="iZCHKtv3HtPBVuqG4Dow-41" vertex="1" connectable="0">
          <mxGeometry x="-0.2589" relative="1" as="geometry">
            <mxPoint x="16" as="offset" />
          </mxGeometry>
        </mxCell>
        <mxCell id="iZCHKtv3HtPBVuqG4Dow-42" style="edgeStyle=orthogonalEdgeStyle;rounded=0;orthogonalLoop=1;jettySize=auto;html=1;entryX=0;entryY=0.5;entryDx=0;entryDy=0;exitX=1;exitY=0.683;exitDx=0;exitDy=0;exitPerimeter=0;fillColor=#d5e8d4;strokeColor=#82b366;" parent="1" source="iZCHKtv3HtPBVuqG4Dow-5" target="iZCHKtv3HtPBVuqG4Dow-27" edge="1">
          <mxGeometry relative="1" as="geometry" />
        </mxCell>
        <mxCell id="iZCHKtv3HtPBVuqG4Dow-44" value="&lt;b&gt;Logs&lt;br&gt;&lt;/b&gt;(STDOUT)" style="edgeLabel;html=1;align=center;verticalAlign=middle;resizable=0;points=[];fontColor=#3A7B12;labelBackgroundColor=none;" parent="iZCHKtv3HtPBVuqG4Dow-42" vertex="1" connectable="0">
          <mxGeometry x="-0.1307" y="-1" relative="1" as="geometry">
            <mxPoint as="offset" />
          </mxGeometry>
        </mxCell>
        <mxCell id="iZCHKtv3HtPBVuqG4Dow-5" value="Demo Apps" style="rounded=1;whiteSpace=wrap;html=1;glass=0;verticalAlign=bottom;fontFamily=Comic Sans MS;fillColor=#f5f5f5;fontColor=#333333;strokeColor=#666666;dashed=1;fontSize=14;" parent="1" vertex="1">
          <mxGeometry x="170" y="150" width="430" height="440" as="geometry" />
        </mxCell>
        <mxCell id="iZCHKtv3HtPBVuqG4Dow-10" style="edgeStyle=orthogonalEdgeStyle;rounded=1;orthogonalLoop=1;jettySize=auto;html=1;entryX=0;entryY=0.25;entryDx=0;entryDy=0;curved=0;exitX=0.5;exitY=0;exitDx=0;exitDy=0;fillColor=#dae8fc;strokeColor=#6c8ebf;" parent="1" source="iZCHKtv3HtPBVuqG4Dow-6" target="iZCHKtv3HtPBVuqG4Dow-7" edge="1">
          <mxGeometry relative="1" as="geometry" />
        </mxCell>
        <mxCell id="iZCHKtv3HtPBVuqG4Dow-14" value="http" style="edgeLabel;html=1;align=center;verticalAlign=middle;resizable=0;points=[];fontColor=#6C8EBF;labelBackgroundColor=light-dark(#f5f5f5, #ededed);" parent="iZCHKtv3HtPBVuqG4Dow-10" vertex="1" connectable="0">
          <mxGeometry x="0.428" relative="1" as="geometry">
            <mxPoint as="offset" />
          </mxGeometry>
        </mxCell>
        <mxCell id="iZCHKtv3HtPBVuqG4Dow-11" style="edgeStyle=orthogonalEdgeStyle;rounded=1;orthogonalLoop=1;jettySize=auto;html=1;entryX=0;entryY=0.75;entryDx=0;entryDy=0;curved=0;exitX=0.5;exitY=1;exitDx=0;exitDy=0;fillColor=#dae8fc;strokeColor=#6c8ebf;" parent="1" source="iZCHKtv3HtPBVuqG4Dow-6" target="iZCHKtv3HtPBVuqG4Dow-9" edge="1">
          <mxGeometry relative="1" as="geometry" />
        </mxCell>
        <mxCell id="iZCHKtv3HtPBVuqG4Dow-17" value="http" style="edgeLabel;html=1;align=center;verticalAlign=middle;resizable=0;points=[];fontColor=#6C8EBF;labelBackgroundColor=light-dark(#f5f5f5, #ededed);" parent="iZCHKtv3HtPBVuqG4Dow-11" vertex="1" connectable="0">
          <mxGeometry x="0.5205" relative="1" as="geometry">
            <mxPoint as="offset" />
          </mxGeometry>
        </mxCell>
        <mxCell id="iZCHKtv3HtPBVuqG4Dow-15" style="edgeStyle=orthogonalEdgeStyle;rounded=1;orthogonalLoop=1;jettySize=auto;html=1;entryX=0;entryY=0.25;entryDx=0;entryDy=0;exitX=0.75;exitY=1;exitDx=0;exitDy=0;curved=0;fillColor=#d5e8d4;strokeColor=#82b366;" parent="1" source="iZCHKtv3HtPBVuqG4Dow-6" target="iZCHKtv3HtPBVuqG4Dow-9" edge="1">
          <mxGeometry relative="1" as="geometry" />
        </mxCell>
        <mxCell id="iZCHKtv3HtPBVuqG4Dow-16" value="kafka" style="edgeLabel;html=1;align=center;verticalAlign=middle;resizable=0;points=[];fontColor=#55AA1D;labelBackgroundColor=light-dark(#f5f5f5, #ededed);" parent="iZCHKtv3HtPBVuqG4Dow-15" vertex="1" connectable="0">
          <mxGeometry x="0.4294" relative="1" as="geometry">
            <mxPoint as="offset" />
          </mxGeometry>
        </mxCell>
        <mxCell id="iZCHKtv3HtPBVuqG4Dow-18" style="edgeStyle=orthogonalEdgeStyle;rounded=0;orthogonalLoop=1;jettySize=auto;html=1;entryX=0;entryY=0.25;entryDx=0;entryDy=0;exitX=1;exitY=0.25;exitDx=0;exitDy=0;fillColor=#dae8fc;strokeColor=#6c8ebf;" parent="1" source="iZCHKtv3HtPBVuqG4Dow-6" target="iZCHKtv3HtPBVuqG4Dow-8" edge="1">
          <mxGeometry relative="1" as="geometry" />
        </mxCell>
        <mxCell id="iZCHKtv3HtPBVuqG4Dow-20" value="http" style="edgeLabel;html=1;align=center;verticalAlign=middle;resizable=0;points=[];fontColor=#6C8EBF;labelBackgroundColor=light-dark(#f5f5f5, #ededed);" parent="iZCHKtv3HtPBVuqG4Dow-18" vertex="1" connectable="0">
          <mxGeometry x="0.221" y="1" relative="1" as="geometry">
            <mxPoint as="offset" />
          </mxGeometry>
        </mxCell>
        <mxCell id="iZCHKtv3HtPBVuqG4Dow-19" style="edgeStyle=orthogonalEdgeStyle;rounded=0;orthogonalLoop=1;jettySize=auto;html=1;entryX=0;entryY=0.75;entryDx=0;entryDy=0;exitX=1;exitY=0.75;exitDx=0;exitDy=0;fillColor=#d5e8d4;strokeColor=#82b366;" parent="1" source="iZCHKtv3HtPBVuqG4Dow-6" target="iZCHKtv3HtPBVuqG4Dow-8" edge="1">
          <mxGeometry relative="1" as="geometry" />
        </mxCell>
        <mxCell id="iZCHKtv3HtPBVuqG4Dow-21" value="kafka" style="edgeLabel;html=1;align=center;verticalAlign=middle;resizable=0;points=[];fontColor=#55AA1D;labelBackgroundColor=light-dark(#f5f5f5, #ededed);" parent="iZCHKtv3HtPBVuqG4Dow-19" vertex="1" connectable="0">
          <mxGeometry x="0.221" y="1" relative="1" as="geometry">
            <mxPoint as="offset" />
          </mxGeometry>
        </mxCell>
        <mxCell id="iZCHKtv3HtPBVuqG4Dow-22" style="edgeStyle=orthogonalEdgeStyle;rounded=0;orthogonalLoop=1;jettySize=auto;html=1;exitX=0;exitY=0.25;exitDx=0;exitDy=0;endArrow=none;startFill=1;startArrow=classic;fillColor=#dae8fc;strokeColor=#6c8ebf;" parent="1" source="iZCHKtv3HtPBVuqG4Dow-6" edge="1">
          <mxGeometry relative="1" as="geometry">
            <mxPoint x="90" y="355" as="targetPoint" />
          </mxGeometry>
        </mxCell>
        <mxCell id="iZCHKtv3HtPBVuqG4Dow-24" value="&lt;font style=&quot;color: rgb(108, 142, 191);&quot;&gt;sync request&lt;/font&gt;" style="edgeLabel;html=1;align=center;verticalAlign=middle;resizable=0;points=[];labelBackgroundColor=none;" parent="iZCHKtv3HtPBVuqG4Dow-22" vertex="1" connectable="0">
          <mxGeometry x="0.4456" y="-1" relative="1" as="geometry">
            <mxPoint x="10" y="-5" as="offset" />
          </mxGeometry>
        </mxCell>
        <mxCell id="iZCHKtv3HtPBVuqG4Dow-6" value="Trip Booking" style="rounded=1;whiteSpace=wrap;html=1;fillColor=#fff2cc;strokeColor=#d6b656;strokeWidth=2;fontStyle=1" parent="1" vertex="1">
          <mxGeometry x="190" y="340" width="120" height="60" as="geometry" />
        </mxCell>
        <mxCell id="iZCHKtv3HtPBVuqG4Dow-7" value="Car Booking" style="rounded=1;whiteSpace=wrap;html=1;fillColor=#fff2cc;strokeColor=#d6b656;strokeWidth=2;fontStyle=1" parent="1" vertex="1">
          <mxGeometry x="460" y="190" width="120" height="60" as="geometry" />
        </mxCell>
        <mxCell id="iZCHKtv3HtPBVuqG4Dow-8" value="Flight Booking" style="rounded=1;whiteSpace=wrap;html=1;fillColor=#fff2cc;strokeColor=#d6b656;strokeWidth=2;fontColor=default;fontStyle=1" parent="1" vertex="1">
          <mxGeometry x="460" y="340" width="120" height="60" as="geometry" />
        </mxCell>
        <mxCell id="iZCHKtv3HtPBVuqG4Dow-9" value="Hotel Booking" style="rounded=1;whiteSpace=wrap;html=1;fillColor=#fff2cc;strokeColor=#d6b656;strokeWidth=2;fontStyle=1" parent="1" vertex="1">
          <mxGeometry x="460" y="500" width="120" height="60" as="geometry" />
        </mxCell>
        <mxCell id="iZCHKtv3HtPBVuqG4Dow-12" style="edgeStyle=orthogonalEdgeStyle;rounded=1;orthogonalLoop=1;jettySize=auto;html=1;entryX=0;entryY=0.75;entryDx=0;entryDy=0;curved=0;exitX=0.75;exitY=0;exitDx=0;exitDy=0;fillColor=#d5e8d4;strokeColor=#82b366;" parent="1" source="iZCHKtv3HtPBVuqG4Dow-6" target="iZCHKtv3HtPBVuqG4Dow-7" edge="1">
          <mxGeometry relative="1" as="geometry">
            <mxPoint x="260" y="350" as="sourcePoint" />
            <mxPoint x="470" y="215" as="targetPoint" />
          </mxGeometry>
        </mxCell>
        <mxCell id="iZCHKtv3HtPBVuqG4Dow-13" value="kafka" style="edgeLabel;html=1;align=center;verticalAlign=middle;resizable=0;points=[];fontColor=#55AA1D;labelBackgroundColor=light-dark(#f5f5f5, #ededed);" parent="iZCHKtv3HtPBVuqG4Dow-12" vertex="1" connectable="0">
          <mxGeometry x="0.331" relative="1" as="geometry">
            <mxPoint as="offset" />
          </mxGeometry>
        </mxCell>
        <mxCell id="iZCHKtv3HtPBVuqG4Dow-23" style="rounded=0;orthogonalLoop=1;jettySize=auto;html=1;exitX=0;exitY=0.75;exitDx=0;exitDy=0;endArrow=none;startFill=1;startArrow=classic;fillColor=#d5e8d4;strokeColor=#82b366;fontColor=#55AA1D;" parent="1" source="iZCHKtv3HtPBVuqG4Dow-6" edge="1">
          <mxGeometry relative="1" as="geometry">
            <mxPoint x="90" y="385" as="targetPoint" />
            <mxPoint x="200" y="365" as="sourcePoint" />
          </mxGeometry>
        </mxCell>
        <mxCell id="iZCHKtv3HtPBVuqG4Dow-25" value="&lt;font style=&quot;color: rgb(85, 170, 29);&quot;&gt;async request&lt;/font&gt;" style="edgeLabel;html=1;align=center;verticalAlign=middle;resizable=0;points=[];labelBackgroundColor=none;" parent="iZCHKtv3HtPBVuqG4Dow-23" vertex="1" connectable="0">
          <mxGeometry x="0.1311" y="-1" relative="1" as="geometry">
            <mxPoint x="-4" y="-5" as="offset" />
          </mxGeometry>
        </mxCell>
        <mxCell id="iZCHKtv3HtPBVuqG4Dow-35" style="edgeStyle=orthogonalEdgeStyle;rounded=1;orthogonalLoop=1;jettySize=auto;html=1;entryX=0;entryY=0.5;entryDx=0;entryDy=0;curved=0;exitX=1;exitY=0.25;exitDx=0;exitDy=0;fillColor=#d5e8d4;strokeColor=#82b366;" parent="1" source="iZCHKtv3HtPBVuqG4Dow-26" target="iZCHKtv3HtPBVuqG4Dow-28" edge="1">
          <mxGeometry relative="1" as="geometry" />
        </mxCell>
        <mxCell id="iZCHKtv3HtPBVuqG4Dow-36" style="edgeStyle=orthogonalEdgeStyle;rounded=1;orthogonalLoop=1;jettySize=auto;html=1;entryX=0;entryY=0.5;entryDx=0;entryDy=0;curved=0;exitX=1;exitY=0.75;exitDx=0;exitDy=0;fillColor=#d5e8d4;strokeColor=#82b366;" parent="1" source="iZCHKtv3HtPBVuqG4Dow-26" target="iZCHKtv3HtPBVuqG4Dow-29" edge="1">
          <mxGeometry relative="1" as="geometry" />
        </mxCell>
        <mxCell id="iZCHKtv3HtPBVuqG4Dow-26" value="Otel Collector" style="rounded=1;whiteSpace=wrap;html=1;fillColor=#d5e8d4;strokeColor=#82b366;strokeWidth=2;fontStyle=1" parent="1" vertex="1">
          <mxGeometry x="720" y="290" width="120" height="60" as="geometry" />
        </mxCell>
        <mxCell id="iZCHKtv3HtPBVuqG4Dow-37" style="edgeStyle=orthogonalEdgeStyle;rounded=0;orthogonalLoop=1;jettySize=auto;html=1;entryX=0;entryY=0.5;entryDx=0;entryDy=0;fillColor=#d5e8d4;strokeColor=#82b366;" parent="1" source="iZCHKtv3HtPBVuqG4Dow-27" target="iZCHKtv3HtPBVuqG4Dow-30" edge="1">
          <mxGeometry relative="1" as="geometry" />
        </mxCell>
        <mxCell id="iZCHKtv3HtPBVuqG4Dow-27" value="FileBeat" style="rounded=1;whiteSpace=wrap;html=1;fillColor=#d5e8d4;strokeColor=#82b366;strokeWidth=2;fontStyle=1" parent="1" vertex="1">
          <mxGeometry x="720" y="420" width="120" height="60" as="geometry" />
        </mxCell>
        <mxCell id="iZCHKtv3HtPBVuqG4Dow-38" style="edgeStyle=orthogonalEdgeStyle;rounded=1;orthogonalLoop=1;jettySize=auto;html=1;entryX=0;entryY=0.25;entryDx=0;entryDy=0;curved=0;fillColor=#d5e8d4;strokeColor=#82b366;" parent="1" source="iZCHKtv3HtPBVuqG4Dow-28" target="iZCHKtv3HtPBVuqG4Dow-31" edge="1">
          <mxGeometry relative="1" as="geometry" />
        </mxCell>
        <mxCell id="iZCHKtv3HtPBVuqG4Dow-28" value="Jaeger" style="rounded=1;whiteSpace=wrap;html=1;fillColor=#d5e8d4;strokeColor=#82b366;strokeWidth=2;fontStyle=1" parent="1" vertex="1">
          <mxGeometry x="889" y="240" width="120" height="60" as="geometry" />
        </mxCell>
        <mxCell id="iZCHKtv3HtPBVuqG4Dow-39" style="edgeStyle=orthogonalEdgeStyle;rounded=0;orthogonalLoop=1;jettySize=auto;html=1;entryX=0;entryY=0.5;entryDx=0;entryDy=0;fillColor=#d5e8d4;strokeColor=#82b366;" parent="1" source="iZCHKtv3HtPBVuqG4Dow-29" target="iZCHKtv3HtPBVuqG4Dow-31" edge="1">
          <mxGeometry relative="1" as="geometry" />
        </mxCell>
        <mxCell id="iZCHKtv3HtPBVuqG4Dow-29" value="Prometheus" style="rounded=1;whiteSpace=wrap;html=1;fillColor=#d5e8d4;strokeColor=#82b366;strokeWidth=2;fontStyle=1" parent="1" vertex="1">
          <mxGeometry x="889" y="330" width="120" height="60" as="geometry" />
        </mxCell>
        <mxCell id="iZCHKtv3HtPBVuqG4Dow-40" style="edgeStyle=orthogonalEdgeStyle;rounded=1;orthogonalLoop=1;jettySize=auto;html=1;entryX=0;entryY=0.75;entryDx=0;entryDy=0;curved=0;fillColor=#d5e8d4;strokeColor=#82b366;" parent="1" source="iZCHKtv3HtPBVuqG4Dow-30" target="iZCHKtv3HtPBVuqG4Dow-31" edge="1">
          <mxGeometry relative="1" as="geometry" />
        </mxCell>
        <mxCell id="iZCHKtv3HtPBVuqG4Dow-30" value="ElasticSearch" style="rounded=1;whiteSpace=wrap;html=1;fillColor=#d5e8d4;strokeColor=#82b366;strokeWidth=2;fontStyle=1" parent="1" vertex="1">
          <mxGeometry x="889" y="420" width="120" height="60" as="geometry" />
        </mxCell>
        <mxCell id="iZCHKtv3HtPBVuqG4Dow-31" value="Grafana" style="rounded=1;whiteSpace=wrap;html=1;fillColor=#d5e8d4;strokeColor=#82b366;strokeWidth=2;fontStyle=1" parent="1" vertex="1">
          <mxGeometry x="1049" y="330" width="120" height="60" as="geometry" />
        </mxCell>
      </root>
    </mxGraphModel>
  </diagram>
  <diagram name="dark" id="S8w8S7DUu0dYrCHYJywv">
    <mxGraphModel dx="1268" dy="916" grid="1" gridSize="10" guides="1" tooltips="1" connect="1" arrows="1" fold="1" page="1" pageScale="1" pageWidth="1169" pageHeight="827" background="none" math="0" shadow="0">
      <root>
        <mxCell id="12xlyDszhKsHknCrQ6EU-0" />
        <mxCell id="12xlyDszhKsHknCrQ6EU-1" parent="12xlyDszhKsHknCrQ6EU-0" />
        <mxCell id="12xlyDszhKsHknCrQ6EU-2" style="edgeStyle=orthogonalEdgeStyle;rounded=0;orthogonalLoop=1;jettySize=auto;html=1;entryX=0;entryY=0.5;entryDx=0;entryDy=0;exitX=1;exitY=0.386;exitDx=0;exitDy=0;exitPerimeter=0;fillColor=#d5e8d4;strokeColor=#82b366;" edge="1" parent="12xlyDszhKsHknCrQ6EU-1" source="12xlyDszhKsHknCrQ6EU-6" target="12xlyDszhKsHknCrQ6EU-29">
          <mxGeometry relative="1" as="geometry" />
        </mxCell>
        <mxCell id="12xlyDszhKsHknCrQ6EU-3" value="&lt;b&gt;OpenTelemetry&lt;/b&gt;&lt;br&gt;(metrics, traces)" style="edgeLabel;html=1;align=center;verticalAlign=middle;resizable=0;points=[];fontColor=#3A7B12;labelBackgroundColor=none;" vertex="1" connectable="0" parent="12xlyDszhKsHknCrQ6EU-2">
          <mxGeometry x="-0.2589" relative="1" as="geometry">
            <mxPoint x="16" as="offset" />
          </mxGeometry>
        </mxCell>
        <mxCell id="12xlyDszhKsHknCrQ6EU-4" style="edgeStyle=orthogonalEdgeStyle;rounded=0;orthogonalLoop=1;jettySize=auto;html=1;entryX=0;entryY=0.5;entryDx=0;entryDy=0;exitX=1;exitY=0.683;exitDx=0;exitDy=0;exitPerimeter=0;fillColor=#d5e8d4;strokeColor=#82b366;" edge="1" parent="12xlyDszhKsHknCrQ6EU-1" source="12xlyDszhKsHknCrQ6EU-6" target="12xlyDszhKsHknCrQ6EU-31">
          <mxGeometry relative="1" as="geometry" />
        </mxCell>
        <mxCell id="12xlyDszhKsHknCrQ6EU-5" value="&lt;b&gt;Logs&lt;br&gt;&lt;/b&gt;(STDOUT)" style="edgeLabel;html=1;align=center;verticalAlign=middle;resizable=0;points=[];fontColor=#3A7B12;labelBackgroundColor=none;" vertex="1" connectable="0" parent="12xlyDszhKsHknCrQ6EU-4">
          <mxGeometry x="-0.1307" y="-1" relative="1" as="geometry">
            <mxPoint as="offset" />
          </mxGeometry>
        </mxCell>
        <mxCell id="12xlyDszhKsHknCrQ6EU-6" value="Demo Apps" style="rounded=1;whiteSpace=wrap;html=1;glass=0;verticalAlign=bottom;fontFamily=Comic Sans MS;fillColor=#f5f5f5;fontColor=#2B2F3C;strokeColor=#666666;dashed=1;fontSize=14;labelBackgroundColor=none;fontStyle=1" vertex="1" parent="12xlyDszhKsHknCrQ6EU-1">
          <mxGeometry x="170" y="150" width="430" height="440" as="geometry" />
        </mxCell>
        <mxCell id="12xlyDszhKsHknCrQ6EU-7" style="edgeStyle=orthogonalEdgeStyle;rounded=1;orthogonalLoop=1;jettySize=auto;html=1;entryX=0;entryY=0.25;entryDx=0;entryDy=0;curved=0;exitX=0.5;exitY=0;exitDx=0;exitDy=0;fillColor=#dae8fc;strokeColor=#6c8ebf;" edge="1" parent="12xlyDszhKsHknCrQ6EU-1" source="12xlyDszhKsHknCrQ6EU-19" target="12xlyDszhKsHknCrQ6EU-20">
          <mxGeometry relative="1" as="geometry" />
        </mxCell>
        <mxCell id="12xlyDszhKsHknCrQ6EU-8" value="http" style="edgeLabel;html=1;align=center;verticalAlign=middle;resizable=0;points=[];fontColor=#6C8EBF;labelBackgroundColor=light-dark(#f5f5f5, #ededed);" vertex="1" connectable="0" parent="12xlyDszhKsHknCrQ6EU-7">
          <mxGeometry x="0.428" relative="1" as="geometry">
            <mxPoint as="offset" />
          </mxGeometry>
        </mxCell>
        <mxCell id="12xlyDszhKsHknCrQ6EU-9" style="edgeStyle=orthogonalEdgeStyle;rounded=1;orthogonalLoop=1;jettySize=auto;html=1;entryX=0;entryY=0.75;entryDx=0;entryDy=0;curved=0;exitX=0.5;exitY=1;exitDx=0;exitDy=0;fillColor=#dae8fc;strokeColor=#6c8ebf;" edge="1" parent="12xlyDszhKsHknCrQ6EU-1" source="12xlyDszhKsHknCrQ6EU-19" target="12xlyDszhKsHknCrQ6EU-22">
          <mxGeometry relative="1" as="geometry" />
        </mxCell>
        <mxCell id="12xlyDszhKsHknCrQ6EU-10" value="http" style="edgeLabel;html=1;align=center;verticalAlign=middle;resizable=0;points=[];fontColor=#6C8EBF;labelBackgroundColor=light-dark(#f5f5f5, #ededed);" vertex="1" connectable="0" parent="12xlyDszhKsHknCrQ6EU-9">
          <mxGeometry x="0.5205" relative="1" as="geometry">
            <mxPoint as="offset" />
          </mxGeometry>
        </mxCell>
        <mxCell id="12xlyDszhKsHknCrQ6EU-11" style="edgeStyle=orthogonalEdgeStyle;rounded=1;orthogonalLoop=1;jettySize=auto;html=1;entryX=0;entryY=0.25;entryDx=0;entryDy=0;exitX=0.75;exitY=1;exitDx=0;exitDy=0;curved=0;fillColor=#d5e8d4;strokeColor=#82b366;" edge="1" parent="12xlyDszhKsHknCrQ6EU-1" source="12xlyDszhKsHknCrQ6EU-19" target="12xlyDszhKsHknCrQ6EU-22">
          <mxGeometry relative="1" as="geometry" />
        </mxCell>
        <mxCell id="12xlyDszhKsHknCrQ6EU-12" value="kafka" style="edgeLabel;html=1;align=center;verticalAlign=middle;resizable=0;points=[];fontColor=#55AA1D;labelBackgroundColor=light-dark(#f5f5f5, #ededed);" vertex="1" connectable="0" parent="12xlyDszhKsHknCrQ6EU-11">
          <mxGeometry x="0.4294" relative="1" as="geometry">
            <mxPoint as="offset" />
          </mxGeometry>
        </mxCell>
        <mxCell id="12xlyDszhKsHknCrQ6EU-13" style="edgeStyle=orthogonalEdgeStyle;rounded=0;orthogonalLoop=1;jettySize=auto;html=1;entryX=0;entryY=0.25;entryDx=0;entryDy=0;exitX=1;exitY=0.25;exitDx=0;exitDy=0;fillColor=#dae8fc;strokeColor=#6c8ebf;" edge="1" parent="12xlyDszhKsHknCrQ6EU-1" source="12xlyDszhKsHknCrQ6EU-19" target="12xlyDszhKsHknCrQ6EU-21">
          <mxGeometry relative="1" as="geometry" />
        </mxCell>
        <mxCell id="12xlyDszhKsHknCrQ6EU-14" value="http" style="edgeLabel;html=1;align=center;verticalAlign=middle;resizable=0;points=[];fontColor=#6C8EBF;labelBackgroundColor=light-dark(#f5f5f5, #ededed);" vertex="1" connectable="0" parent="12xlyDszhKsHknCrQ6EU-13">
          <mxGeometry x="0.221" y="1" relative="1" as="geometry">
            <mxPoint as="offset" />
          </mxGeometry>
        </mxCell>
        <mxCell id="12xlyDszhKsHknCrQ6EU-15" style="edgeStyle=orthogonalEdgeStyle;rounded=0;orthogonalLoop=1;jettySize=auto;html=1;entryX=0;entryY=0.75;entryDx=0;entryDy=0;exitX=1;exitY=0.75;exitDx=0;exitDy=0;fillColor=#d5e8d4;strokeColor=#82b366;" edge="1" parent="12xlyDszhKsHknCrQ6EU-1" source="12xlyDszhKsHknCrQ6EU-19" target="12xlyDszhKsHknCrQ6EU-21">
          <mxGeometry relative="1" as="geometry" />
        </mxCell>
        <mxCell id="12xlyDszhKsHknCrQ6EU-16" value="kafka" style="edgeLabel;html=1;align=center;verticalAlign=middle;resizable=0;points=[];fontColor=#55AA1D;labelBackgroundColor=light-dark(#f5f5f5, #ededed);" vertex="1" connectable="0" parent="12xlyDszhKsHknCrQ6EU-15">
          <mxGeometry x="0.221" y="1" relative="1" as="geometry">
            <mxPoint as="offset" />
          </mxGeometry>
        </mxCell>
        <mxCell id="12xlyDszhKsHknCrQ6EU-17" style="edgeStyle=orthogonalEdgeStyle;rounded=0;orthogonalLoop=1;jettySize=auto;html=1;exitX=0;exitY=0.25;exitDx=0;exitDy=0;endArrow=none;startFill=1;startArrow=classic;fillColor=#dae8fc;strokeColor=#6c8ebf;" edge="1" parent="12xlyDszhKsHknCrQ6EU-1" source="12xlyDszhKsHknCrQ6EU-19">
          <mxGeometry relative="1" as="geometry">
            <mxPoint x="90" y="355" as="targetPoint" />
          </mxGeometry>
        </mxCell>
        <mxCell id="12xlyDszhKsHknCrQ6EU-18" value="&lt;font style=&quot;color: rgb(108, 142, 191);&quot;&gt;sync request&lt;/font&gt;" style="edgeLabel;html=1;align=center;verticalAlign=middle;resizable=0;points=[];labelBackgroundColor=none;" vertex="1" connectable="0" parent="12xlyDszhKsHknCrQ6EU-17">
          <mxGeometry x="0.4456" y="-1" relative="1" as="geometry">
            <mxPoint x="9" y="-5" as="offset" />
          </mxGeometry>
        </mxCell>
        <mxCell id="12xlyDszhKsHknCrQ6EU-19" value="Trip Booking" style="rounded=1;whiteSpace=wrap;html=1;fillColor=#fff2cc;strokeColor=#d6b656;strokeWidth=2;fontColor=#2B2F3C;fontStyle=1" vertex="1" parent="12xlyDszhKsHknCrQ6EU-1">
          <mxGeometry x="190" y="340" width="120" height="60" as="geometry" />
        </mxCell>
        <mxCell id="12xlyDszhKsHknCrQ6EU-20" value="Car Booking" style="rounded=1;whiteSpace=wrap;html=1;fillColor=#fff2cc;strokeColor=#d6b656;strokeWidth=2;fontColor=#2B2F3C;fontStyle=1" vertex="1" parent="12xlyDszhKsHknCrQ6EU-1">
          <mxGeometry x="460" y="190" width="120" height="60" as="geometry" />
        </mxCell>
        <mxCell id="12xlyDszhKsHknCrQ6EU-21" value="Flight Booking" style="rounded=1;whiteSpace=wrap;html=1;fillColor=#fff2cc;strokeColor=#d6b656;strokeWidth=2;fontColor=#2B2F3C;fontStyle=1" vertex="1" parent="12xlyDszhKsHknCrQ6EU-1">
          <mxGeometry x="460" y="340" width="120" height="60" as="geometry" />
        </mxCell>
        <mxCell id="12xlyDszhKsHknCrQ6EU-22" value="Hotel Booking" style="rounded=1;whiteSpace=wrap;html=1;fillColor=#fff2cc;strokeColor=#d6b656;strokeWidth=2;fontColor=#2B2F3C;fontStyle=1" vertex="1" parent="12xlyDszhKsHknCrQ6EU-1">
          <mxGeometry x="460" y="500" width="120" height="60" as="geometry" />
        </mxCell>
        <mxCell id="12xlyDszhKsHknCrQ6EU-23" style="edgeStyle=orthogonalEdgeStyle;rounded=1;orthogonalLoop=1;jettySize=auto;html=1;entryX=0;entryY=0.75;entryDx=0;entryDy=0;curved=0;exitX=0.75;exitY=0;exitDx=0;exitDy=0;fillColor=#d5e8d4;strokeColor=#82b366;" edge="1" parent="12xlyDszhKsHknCrQ6EU-1" source="12xlyDszhKsHknCrQ6EU-19" target="12xlyDszhKsHknCrQ6EU-20">
          <mxGeometry relative="1" as="geometry">
            <mxPoint x="260" y="350" as="sourcePoint" />
            <mxPoint x="470" y="215" as="targetPoint" />
          </mxGeometry>
        </mxCell>
        <mxCell id="12xlyDszhKsHknCrQ6EU-24" value="kafka" style="edgeLabel;html=1;align=center;verticalAlign=middle;resizable=0;points=[];fontColor=#55AA1D;labelBackgroundColor=light-dark(#f5f5f5, #ededed);" vertex="1" connectable="0" parent="12xlyDszhKsHknCrQ6EU-23">
          <mxGeometry x="0.331" relative="1" as="geometry">
            <mxPoint as="offset" />
          </mxGeometry>
        </mxCell>
        <mxCell id="12xlyDszhKsHknCrQ6EU-25" style="rounded=0;orthogonalLoop=1;jettySize=auto;html=1;exitX=0;exitY=0.75;exitDx=0;exitDy=0;endArrow=none;startFill=1;startArrow=classic;fillColor=#d5e8d4;strokeColor=#82b366;fontColor=#55AA1D;" edge="1" parent="12xlyDszhKsHknCrQ6EU-1" source="12xlyDszhKsHknCrQ6EU-19">
          <mxGeometry relative="1" as="geometry">
            <mxPoint x="90" y="385" as="targetPoint" />
            <mxPoint x="200" y="365" as="sourcePoint" />
          </mxGeometry>
        </mxCell>
        <mxCell id="12xlyDszhKsHknCrQ6EU-26" value="&lt;font style=&quot;color: rgb(85, 170, 29);&quot;&gt;async request&lt;/font&gt;" style="edgeLabel;html=1;align=center;verticalAlign=middle;resizable=0;points=[];labelBackgroundColor=none;" vertex="1" connectable="0" parent="12xlyDszhKsHknCrQ6EU-25">
          <mxGeometry x="0.1311" y="-1" relative="1" as="geometry">
            <mxPoint x="-3" y="-5" as="offset" />
          </mxGeometry>
        </mxCell>
        <mxCell id="12xlyDszhKsHknCrQ6EU-27" style="edgeStyle=orthogonalEdgeStyle;rounded=1;orthogonalLoop=1;jettySize=auto;html=1;entryX=0;entryY=0.5;entryDx=0;entryDy=0;curved=0;exitX=1;exitY=0.25;exitDx=0;exitDy=0;fillColor=#d5e8d4;strokeColor=#82b366;" edge="1" parent="12xlyDszhKsHknCrQ6EU-1" source="12xlyDszhKsHknCrQ6EU-29" target="12xlyDszhKsHknCrQ6EU-33">
          <mxGeometry relative="1" as="geometry" />
        </mxCell>
        <mxCell id="12xlyDszhKsHknCrQ6EU-28" style="edgeStyle=orthogonalEdgeStyle;rounded=1;orthogonalLoop=1;jettySize=auto;html=1;entryX=0;entryY=0.5;entryDx=0;entryDy=0;curved=0;exitX=1;exitY=0.75;exitDx=0;exitDy=0;fillColor=#d5e8d4;strokeColor=#82b366;" edge="1" parent="12xlyDszhKsHknCrQ6EU-1" source="12xlyDszhKsHknCrQ6EU-29" target="12xlyDszhKsHknCrQ6EU-35">
          <mxGeometry relative="1" as="geometry" />
        </mxCell>
        <mxCell id="12xlyDszhKsHknCrQ6EU-29" value="Otel Collector" style="rounded=1;whiteSpace=wrap;html=1;fillColor=#d5e8d4;strokeColor=#82b366;strokeWidth=2;fontColor=#2B2F3C;fontStyle=1" vertex="1" parent="12xlyDszhKsHknCrQ6EU-1">
          <mxGeometry x="720" y="290" width="120" height="60" as="geometry" />
        </mxCell>
        <mxCell id="12xlyDszhKsHknCrQ6EU-30" style="edgeStyle=orthogonalEdgeStyle;rounded=0;orthogonalLoop=1;jettySize=auto;html=1;entryX=0;entryY=0.5;entryDx=0;entryDy=0;fillColor=#d5e8d4;strokeColor=#82b366;" edge="1" parent="12xlyDszhKsHknCrQ6EU-1" source="12xlyDszhKsHknCrQ6EU-31" target="12xlyDszhKsHknCrQ6EU-37">
          <mxGeometry relative="1" as="geometry" />
        </mxCell>
        <mxCell id="12xlyDszhKsHknCrQ6EU-31" value="FileBeat" style="rounded=1;whiteSpace=wrap;html=1;fillColor=#d5e8d4;strokeColor=#82b366;strokeWidth=2;fontColor=#2B2F3C;fontStyle=1" vertex="1" parent="12xlyDszhKsHknCrQ6EU-1">
          <mxGeometry x="720" y="420" width="120" height="60" as="geometry" />
        </mxCell>
        <mxCell id="12xlyDszhKsHknCrQ6EU-32" style="edgeStyle=orthogonalEdgeStyle;rounded=1;orthogonalLoop=1;jettySize=auto;html=1;entryX=0;entryY=0.25;entryDx=0;entryDy=0;curved=0;fillColor=#d5e8d4;strokeColor=#82b366;" edge="1" parent="12xlyDszhKsHknCrQ6EU-1" source="12xlyDszhKsHknCrQ6EU-33" target="12xlyDszhKsHknCrQ6EU-38">
          <mxGeometry relative="1" as="geometry" />
        </mxCell>
        <mxCell id="12xlyDszhKsHknCrQ6EU-33" value="Jaeger" style="rounded=1;whiteSpace=wrap;html=1;fillColor=#d5e8d4;strokeColor=#82b366;strokeWidth=2;fontColor=#2B2F3C;fontStyle=1" vertex="1" parent="12xlyDszhKsHknCrQ6EU-1">
          <mxGeometry x="889" y="240" width="120" height="60" as="geometry" />
        </mxCell>
        <mxCell id="12xlyDszhKsHknCrQ6EU-34" style="edgeStyle=orthogonalEdgeStyle;rounded=0;orthogonalLoop=1;jettySize=auto;html=1;entryX=0;entryY=0.5;entryDx=0;entryDy=0;fillColor=#d5e8d4;strokeColor=#82b366;" edge="1" parent="12xlyDszhKsHknCrQ6EU-1" source="12xlyDszhKsHknCrQ6EU-35" target="12xlyDszhKsHknCrQ6EU-38">
          <mxGeometry relative="1" as="geometry" />
        </mxCell>
        <mxCell id="12xlyDszhKsHknCrQ6EU-35" value="Prometheus" style="rounded=1;whiteSpace=wrap;html=1;fillColor=#d5e8d4;strokeColor=#82b366;strokeWidth=2;fontColor=#2B2F3C;fontStyle=1" vertex="1" parent="12xlyDszhKsHknCrQ6EU-1">
          <mxGeometry x="889" y="330" width="120" height="60" as="geometry" />
        </mxCell>
        <mxCell id="12xlyDszhKsHknCrQ6EU-36" style="edgeStyle=orthogonalEdgeStyle;rounded=1;orthogonalLoop=1;jettySize=auto;html=1;entryX=0;entryY=0.75;entryDx=0;entryDy=0;curved=0;fillColor=#d5e8d4;strokeColor=#82b366;" edge="1" parent="12xlyDszhKsHknCrQ6EU-1" source="12xlyDszhKsHknCrQ6EU-37" target="12xlyDszhKsHknCrQ6EU-38">
          <mxGeometry relative="1" as="geometry" />
        </mxCell>
        <mxCell id="12xlyDszhKsHknCrQ6EU-37" value="ElasticSearch" style="rounded=1;whiteSpace=wrap;html=1;fillColor=#d5e8d4;strokeColor=#82b366;strokeWidth=2;fontColor=#2B2F3C;fontStyle=1" vertex="1" parent="12xlyDszhKsHknCrQ6EU-1">
          <mxGeometry x="889" y="420" width="120" height="60" as="geometry" />
        </mxCell>
        <mxCell id="12xlyDszhKsHknCrQ6EU-38" value="Grafana" style="rounded=1;whiteSpace=wrap;html=1;fillColor=#d5e8d4;strokeColor=#82b366;strokeWidth=2;fontColor=#2B2F3C;fontStyle=1" vertex="1" parent="12xlyDszhKsHknCrQ6EU-1">
          <mxGeometry x="1049" y="330" width="120" height="60" as="geometry" />
        </mxCell>
      </root>
    </mxGraphModel>
  </diagram>
</mxfile>
